<?xml version="1.0" encoding="UTF-8" standalone="no"?>
<!DOCTYPE svg PUBLIC "-//W3C//DTD SVG 20010904//EN"
              "http://www.w3.org/TR/2001/REC-SVG-20010904/DTD/svg10.dtd">

<svg xmlns="http://www.w3.org/2000/svg"
     width="1.66667in" height="1.66667in"
     viewBox="0 0 500 500">
  <path id="Selection"
        fill="none" stroke="black" stroke-width="1"
        d="M 249.00,0.80
           C 313.38,1.12 372.51,22.85 420.00,67.09
             492.15,134.31 517.38,236.88 486.33,330.00
             477.35,356.93 463.00,384.07 444.92,406.00
             421.24,434.71 396.89,454.87 364.00,472.22
             332.20,488.99 293.86,498.60 258.00,499.00
             258.00,499.00 234.00,499.00 234.00,499.00
             213.87,498.76 188.11,492.38 169.00,486.00
             145.41,478.13 124.22,467.03 104.00,452.57
             51.84,415.29 15.95,357.97 4.58,295.00
             2.44,283.16 1.02,272.05 1.00,260.00
             1.00,260.00 1.00,242.00 1.00,242.00
             1.38,207.69 10.00,174.15 24.31,143.00
             55.04,76.07 117.34,26.77 188.00,8.15
             200.55,4.85 223.18,1.02 236.00,0.80
             236.00,0.80 249.00,0.80 249.00,0.80 Z
           M 236.00,35.28
           C 216.42,38.10 201.16,39.51 182.00,46.08
             125.49,65.46 79.25,106.54 54.31,161.00
             17.09,242.28 34.77,338.76 98.00,402.00
             120.32,424.31 147.54,441.08 177.00,452.05
             194.91,458.72 221.91,464.77 241.00,465.00
             278.18,465.43 311.46,459.52 345.00,442.75
             365.40,432.55 388.21,416.44 403.96,400.00
             473.78,327.12 485.50,217.79 430.14,133.00
             417.03,112.92 401.00,95.29 382.00,80.65
             360.33,63.95 338.21,52.15 312.00,44.28
             289.05,37.39 259.93,33.06 236.00,35.28 Z
           M 246.00,122.00
           C 246.00,122.00 287.00,122.00 287.00,122.00
             287.00,122.00 287.00,377.00 287.00,377.00
             287.00,377.00 236.00,377.00 236.00,377.00
             236.00,377.00 236.00,201.00 236.00,201.00
             236.00,201.00 176.00,201.00 176.00,201.00
             176.00,201.00 176.00,167.00 176.00,167.00
             202.57,167.00 231.92,165.04 242.77,136.00
             244.45,131.50 245.60,126.79 246.00,122.00 Z" />
</svg>
