<?xml version="1.0" encoding="UTF-8" standalone="no"?>
<!DOCTYPE svg PUBLIC "-//W3C//DTD SVG 20010904//EN"
              "http://www.w3.org/TR/2001/REC-SVG-20010904/DTD/svg10.dtd">

<svg xmlns="http://www.w3.org/2000/svg"
     width="1.66667in" height="1.66667in"
     viewBox="0 0 500 500">
  <path id="Selection"
        fill="none" stroke="black" stroke-width="1"
        d="M 248.00,0.46
           C 248.00,0.46 260.00,1.00 260.00,1.00
             272.14,1.06 283.07,2.42 295.00,4.58
             372.58,18.59 442.61,70.95 475.69,143.00
             489.79,173.70 498.61,207.17 499.00,241.00
             499.00,241.00 499.66,250.00 499.66,250.00
             499.66,250.00 499.00,265.00 499.00,265.00
             498.91,283.54 492.89,310.33 487.00,328.00
             465.67,391.99 418.75,447.34 357.00,475.69
             326.30,489.79 292.83,498.61 259.00,499.00
             259.00,499.00 250.00,499.66 250.00,499.66
             250.00,499.66 234.00,499.00 234.00,499.00
             213.87,498.76 188.11,492.38 169.00,486.00
             145.41,478.13 124.22,467.03 104.00,452.57
             49.29,413.47 14.49,354.92 3.43,289.00
             1.90,279.83 1.01,270.28 1.00,261.00
             1.00,261.00 0.34,250.00 0.34,250.00
             0.34,250.00 1.00,234.00 1.00,234.00
             1.33,205.82 12.58,168.54 24.31,143.00
             55.06,76.03 117.30,26.78 188.00,8.15
             199.93,5.01 222.86,1.06 235.00,1.00
             240.15,0.98 242.75,1.12 248.00,0.46 Z
           M 237.00,35.28
           C 237.00,35.28 227.00,36.28 227.00,36.28
             208.31,38.55 190.62,42.77 173.00,49.42
             122.48,68.50 77.86,109.88 55.31,159.00
             44.15,183.29 38.48,206.52 35.83,233.00
             35.83,233.00 35.00,242.00 35.00,242.00
             34.59,277.17 40.56,308.89 55.31,341.00
             79.48,393.65 127.25,435.42 182.00,453.67
             199.06,459.35 224.06,464.79 242.00,465.00
             277.30,465.41 312.13,458.95 344.00,443.24
             368.33,431.25 391.23,414.35 409.15,394.00
             432.76,367.19 449.87,336.78 458.53,302.00
             478.17,223.06 451.15,137.57 388.00,85.61
             364.88,66.60 344.32,55.10 316.00,45.67
             293.42,38.15 260.72,33.08 237.00,35.28 Z
           M 166.00,211.00
           C 166.00,182.83 173.76,152.14 198.00,135.04
             216.93,121.69 236.01,121.75 258.00,122.00
             265.00,122.09 275.30,124.20 282.00,126.34
             315.74,137.16 335.60,165.90 336.00,201.00
             336.09,209.02 334.96,217.27 332.85,225.00
             318.13,278.77 251.99,295.03 225.00,333.00
             225.00,333.00 336.00,333.00 336.00,333.00
             336.00,333.00 336.00,377.00 336.00,377.00
             336.00,377.00 163.00,377.00 163.00,377.00
             163.00,353.47 170.37,328.96 184.48,310.00
             193.54,297.82 206.86,286.48 219.00,277.37
             219.00,277.37 259.00,247.08 259.00,247.08
             269.78,238.08 279.14,228.80 283.28,215.00
             287.13,202.16 286.23,187.15 278.21,176.00
             269.86,164.38 260.17,162.85 247.00,163.00
             240.50,163.08 234.30,164.61 229.00,168.55
             214.32,179.47 215.13,194.86 213.00,211.00
             213.00,211.00 166.00,211.00 166.00,211.00 Z" />
</svg>
