<?xml version="1.0" encoding="UTF-8" standalone="no"?>
<!DOCTYPE svg PUBLIC "-//W3C//DTD SVG 20010904//EN"
              "http://www.w3.org/TR/2001/REC-SVG-20010904/DTD/svg10.dtd">

<svg xmlns="http://www.w3.org/2000/svg"
     width="1.66667in" height="1.66667in"
     viewBox="0 0 500 500">
  <path id="Selection"
        fill="none" stroke="black" stroke-width="1"
        d="M 248.00,0.46
           C 248.00,0.46 260.00,1.00 260.00,1.00
             272.14,1.06 283.07,2.42 295.00,4.58
             372.58,18.59 442.61,70.95 475.69,143.00
             489.79,173.70 498.61,207.17 499.00,241.00
             499.00,241.00 499.66,250.00 499.66,250.00
             499.66,250.00 499.00,265.00 499.00,265.00
             498.91,283.54 492.89,310.33 487.00,328.00
             465.67,391.99 418.75,447.34 357.00,475.69
             326.30,489.79 292.83,498.61 259.00,499.00
             259.00,499.00 250.00,499.66 250.00,499.66
             250.00,499.66 234.00,499.00 234.00,499.00
             213.87,498.76 188.11,492.38 169.00,486.00
             145.41,478.13 124.22,467.03 104.00,452.57
             49.29,413.47 14.49,354.92 3.43,289.00
             1.90,279.83 1.01,270.28 1.00,261.00
             1.00,261.00 0.34,250.00 0.34,250.00
             0.34,250.00 1.00,234.00 1.00,234.00
             1.33,205.82 12.58,168.54 24.31,143.00
             55.06,76.03 117.30,26.78 188.00,8.15
             199.93,5.01 222.86,1.06 235.00,1.00
             240.15,0.98 242.75,1.12 248.00,0.46 Z
           M 235.00,35.28
           C 209.72,38.92 196.69,40.10 172.00,49.42
             121.54,68.47 77.84,108.93 55.31,158.00
             12.19,251.91 39.12,362.33 123.00,423.85
             141.05,437.08 159.82,446.61 181.00,453.67
             197.17,459.06 223.06,464.80 240.00,465.00
             240.00,465.00 258.00,465.00 258.00,465.00
             285.10,464.96 322.88,454.47 347.00,442.24
             365.25,432.99 389.98,415.77 403.91,401.00
             429.91,373.41 449.35,339.89 458.53,303.00
             474.94,237.03 460.12,168.14 417.60,115.00
             417.60,115.00 401.99,97.04 401.99,97.04
             377.29,72.83 348.64,56.18 316.00,45.33
             292.74,37.61 259.43,33.01 235.00,35.28 Z
           M 165.00,202.00
           C 165.00,176.78 172.32,154.14 192.00,137.30
             207.43,124.09 228.18,120.02 248.00,120.74
             271.06,121.59 292.81,125.82 309.71,143.17
             335.88,170.03 334.01,223.47 297.00,240.00
             307.15,244.79 314.23,249.10 321.54,258.00
             333.94,273.11 335.21,287.38 335.00,306.00
             334.77,325.30 325.00,345.15 311.71,358.83
             299.00,371.93 279.95,379.09 262.00,380.92
             262.00,380.92 240.00,380.92 240.00,380.92
             211.52,380.71 185.16,369.95 170.86,344.00
             164.22,331.94 160.12,311.76 160.00,298.00
             160.00,298.00 208.00,298.00 208.00,298.00
             208.35,305.60 209.51,314.04 212.67,321.00
             215.30,326.80 218.74,331.30 224.00,334.95
             232.76,341.02 238.87,341.12 249.00,341.00
             287.71,340.53 297.69,282.59 263.00,268.45
             256.36,265.75 247.16,264.09 240.00,264.00
             240.00,264.00 227.00,264.00 227.00,264.00
             227.00,264.00 227.00,228.00 227.00,228.00
             227.00,228.00 237.00,228.00 237.00,228.00
             243.75,227.97 252.68,226.66 259.00,224.29
             279.35,216.67 283.80,187.73 270.67,172.00
             262.23,161.89 254.31,160.86 242.00,161.00
             235.34,161.08 230.54,162.33 225.01,166.22
             219.86,169.85 216.88,174.33 214.31,180.00
             211.42,186.40 210.32,194.99 210.00,202.00
             210.00,202.00 165.00,202.00 165.00,202.00 Z" />
</svg>
